<?xml version="1.0" encoding="UTF-8"?>
<svg version="1.1" viewBox="0 0 1600 1592" width="1280" height="1280" xmlns="http://www.w3.org/2000/svg">
<path transform="translate(731,629)" d="m0 0c4.25-0.116 8.5-0.187 12.8-0.25 1.21-0.0335 2.41-0.067 3.66-0.102 1.74-0.0193 1.74-0.0193 3.52-0.0391 1.07-0.0209 2.14-0.0419 3.24-0.0635 3.52 0.563 4.69 1.67 6.84 4.45v2h2c0.495 2.97 0.495 2.97 1 6h2c0.818 1.58 1.63 3.16 2.44 4.75 0.452 0.882 0.905 1.76 1.37 2.67 1.03 2.22 1.71 4.19 2.19 6.58h2c0.674 1.27 1.34 2.54 2 3.81 0.371 0.708 0.742 1.42 1.12 2.14 0.875 2.04 0.875 2.04 0.875 5.04h2c0.364 0.69 0.727 1.38 1.1 2.09 2.99 5.58 6.11 10.9 9.8 16 1.1 1.88 1.1 1.88 1.1 4.88h2c0.264 0.56 0.529 1.12 0.802 1.7 2.51 5.17 5.23 10.2 8.19 15.1 0.351 0.583 0.701 1.17 1.06 1.77 1.46 2.42 2.92 4.83 4.39 7.24 1.08 1.78 2.16 3.57 3.24 5.36 0.638 1.05 1.28 2.1 1.93 3.19 1.39 2.66 1.39 2.66 1.39 5.66h2c0.33 1.65 0.66 3.3 1 5h2c0.398 0.814 0.398 0.814 0.805 1.64 0.353 0.715 0.706 1.43 1.07 2.17 0.348 0.708 0.696 1.42 1.05 2.14 1.14 2.26 1.14 2.26 3.07 5.04v3h2c0.985 1.75 1.96 3.5 2.94 5.25 0.545 0.975 1.09 1.95 1.65 2.95 1.18 2.33 1.93 4.25 2.41 6.8h2c0.516 1.09 1.03 2.19 1.56 3.31 1.77 3.55 3.78 6.86 5.94 10.2 7.5 11.6 7.5 11.6 7.5 15.5h2c0.495 2.48 0.495 2.48 1 5h2c0.398 0.814 0.398 0.814 0.805 1.64 0.353 0.715 0.706 1.43 1.07 2.17 0.522 1.06 0.522 1.06 1.05 2.14 1.14 2.26 1.14 2.26 3.07 5.04v3h2c0.619 1.13 1.24 2.27 1.88 3.44 3.49 6.29 7.16 12.5 10.8 18.7 0.594 1.01 0.594 1.01 1.2 2.04 0.941 1.58 1.92 3.13 2.91 4.68 1.2 2.17 1.2 2.17 1.2 5.17h2c0.33 1.65 0.66 3.3 1 5h2c2.48 4.95 2.48 4.95 5 10h4c1.38-1.39 1.38-1.39 2.37-3.33 0.408-0.711 0.815-1.42 1.24-2.15 0.42-0.767 0.84-1.53 1.27-2.33 0.44-0.775 0.88-1.55 1.33-2.35 2.91-5.15 5.71-10.4 8.5-15.6 1.5-2.63 3.21-4.99 5.02-7.41 2.79-4.06 4.97-8.51 7.28-12.9 2.98-5.62 5.91-11 9.71-16.1 4.46-6.49 7.82-13.8 11.3-20.9h2c0.168-0.828 0.168-0.828 0.34-1.67 0.774-2.73 1.93-5.06 3.22-7.58 0.455-0.892 0.91-1.78 1.38-2.7 0.524-1.01 0.524-1.01 1.06-2.05h2c0.34-1.21 0.34-1.21 0.688-2.44 1.65-4.48 3.92-8.45 6.31-12.6h2c0.0619-0.647 0.124-1.29 0.188-1.96 1.17-4.36 3.46-7.84 5.81-11.7 0.919-1.51 1.84-3.02 2.75-4.54 0.407-0.665 0.815-1.33 1.23-2.01 1.16-1.95 1.16-1.95 2.02-4.82h2l0.734-2.52c1.46-4.02 3.38-7.54 5.52-11.2 0.403-0.707 0.807-1.41 1.22-2.14 2.63-4.6 5.32-9.15 8.06-13.7 4.83-7.98 9.43-16 13.5-24.4h2c0.289-0.737 0.578-1.47 0.875-2.23 4.03-9.91 9.7-19 15.2-28.1 0.693-1.19 1.34-2.4 1.95-3.63h2c0.268-0.619 0.536-1.24 0.812-1.88 1.19-2.12 1.19-2.12 4.19-4.12 2.82-0.227 2.82-0.227 6.2-0.195 1.21 0.00645 2.42 0.0129 3.66 0.0195 1.89 0.0251 1.89 0.0251 3.83 0.0508 1.91 0.0135 1.91 0.0135 3.86 0.0273 3.15 0.0236 6.3 0.0565 9.45 0.0977 0.115 6.53 0.115 6.53-2 9.94-6.94 11.7-14.1 24-18 37.1h-2c-0.0993 0.69-0.199 1.38-0.301 2.09-0.837 3.48-2.25 6.29-3.89 9.47-0.634 1.24-1.27 2.48-1.9 3.73-0.479 0.931-0.479 0.931-0.968 1.88-1.41 2.75-2.8 5.51-4.19 8.27-0.459 0.906-0.918 1.81-1.39 2.75-1.23 2.55-2.34 5.14-3.45 7.75-2.43 5.53-5.15 10.9-7.8 16.4-2.97 6.15-5.68 12.3-8.12 18.7h-2c-0.103 0.699-0.206 1.4-0.312 2.12-0.796 3.34-2.1 5.96-3.69 9.01-0.642 1.25-1.28 2.51-1.92 3.76-0.51 1-0.51 1-1.03 2.02-1.83 3.65-3.56 7.34-5.3 11-2.52 5.36-5.06 10.7-7.63 16-0.488 1.01-0.975 2.02-1.48 3.07-0.943 1.96-1.89 3.91-2.84 5.86-2.86 5.94-5.44 11.9-7.81 18.1h-2c-0.0993 0.853-0.199 1.71-0.301 2.59-0.775 3.79-2.1 6.61-3.89 10-0.312 0.607-0.623 1.21-0.945 1.84-0.95 1.85-1.91 3.69-2.87 5.54-3.7 7.22-7.14 14.4-10 22h-2c-0.0773 0.822-0.155 1.64-0.234 2.49-0.958 4.39-2.83 7.74-5.02 11.6-3.18 5.82-5.99 11.6-8.44 17.8-2.48 5.86-5.44 11.5-8.33 17.2-2.86 5.62-5.62 11.3-8.24 17-2.46 5.34-5.11 10.5-7.94 15.7-3.23 5.9-5.79 11.8-7.81 18.2h-2c-0.103 0.866-0.206 1.73-0.312 2.62-0.721 3.54-1.96 6.22-3.69 9.38-1.83-0.199-1.83-0.199-4-1-1.48-2.14-1.48-2.14-2.75-4.81-0.428-0.873-0.856-1.75-1.3-2.64-0.953-2.54-0.953-2.54-0.953-6.54h-2c-0.33-1.98-0.66-3.96-1-6h-2c-0.231-0.606-0.461-1.21-0.699-1.84-0.326-0.838-0.652-1.68-0.988-2.54-0.313-0.812-0.626-1.62-0.949-2.46-1.54-3.58-3.27-7.02-5.03-10.5-2.14-4.27-4.17-8.6-6.21-12.9-3.94-8.3-7.98-16.5-12.1-24.8-4.78-9.45-9.44-18.9-13.9-28.5-0.533-1.13-0.533-1.13-1.08-2.29-0.336-0.717-0.672-1.43-1.02-2.17-0.868-1.81-1.79-3.59-2.72-5.37-1.24-2.63-1.24-2.63-1.24-5.63h-2c-0.184-0.501-0.369-1-0.559-1.52-5.98-15.6-13.9-30.5-21.4-45.4-4.1-8.13-8.09-16.3-12-24.5-3.42-7.24-7.01-14.3-10.8-21.4-2.95-5.51-5.62-11.1-8.24-16.8-2.35-5.05-4.88-9.97-7.52-14.9-3.42-6.36-6.59-12.8-9.63-19.3-2.01-4.34-4.09-8.63-6.25-12.9-3.5-6.94-6.84-13.9-10.2-21-2.11-4.45-4.24-8.89-6.46-13.3-2.35-4.66-4.69-9.32-7-14-0.299-0.605-0.599-1.21-0.907-1.83-0.855-1.74-1.69-3.48-2.53-5.23-0.494-1.02-0.987-2.04-1.5-3.1-1.08-2.89-1.15-4.8-1.07-7.84zm19 13v4h2c0.0825 0.99 0.165 1.98 0.25 3 0.535 3.79 1.93 6.7 3.72 10 1.18 2.24 2.14 4.55 3.11 6.89 1.73 3.87 3.69 7.62 5.62 11.4 1.3 2.67 1.3 2.67 2.3 5.67h2c0.0928 0.842 0.186 1.68 0.281 2.55 0.816 3.92 2.36 7.14 4.22 10.6 3.41 6.53 3.41 6.53 4.5 9.81h2c0.33 1.98 0.66 3.96 1 6h2c0.098 0.852 0.196 1.7 0.297 2.58 0.785 3.82 2.15 6.66 3.95 10.1 0.636 1.23 1.27 2.46 1.9 3.7 0.47 0.911 0.47 0.911 0.949 1.84 2.93 5.79 5.52 11.7 7.9 17.8h2c0.139 1.26 0.139 1.26 0.281 2.55 0.816 3.92 2.36 7.14 4.22 10.6 3.41 6.53 3.41 6.53 4.5 9.81h2c0.33 1.98 0.66 3.96 1 6h2c0.33 1.98 0.66 3.96 1 6h2c0.33 1.98 0.66 3.96 1 6h2c0.0657 0.798 0.131 1.6 0.199 2.42 1.07 4.79 3.25 8.62 5.61 12.9 2.97 5.43 5.78 10.8 8.25 16.5 1.5 3.44 3.09 6.83 4.69 10.2 0.507 1.08 0.507 1.08 1.02 2.18 2.81 5.94 5.72 11.8 8.7 17.7 1.36 2.68 2.58 5.24 3.53 8.09h2c0.0928 0.679 0.186 1.36 0.281 2.06 0.886 3.63 2.49 6.72 4.22 10 3.86 7.35 3.86 7.35 4.5 10.9h2c0.0851 0.663 0.17 1.33 0.258 2.01 0.98 3.95 2.74 7.27 4.62 10.9 2.57 4.98 4.98 9.95 7.12 15.1h2c0.33 1.98 0.66 3.96 1 6h2c0.33 1.98 0.66 3.96 1 6h2c0.0928 0.842 0.186 1.68 0.281 2.55 0.816 3.92 2.36 7.14 4.22 10.6 3.41 6.53 3.41 6.53 4.5 9.81h2v2h3c6.27-12.4 6.27-12.4 12-25 2.26-5.19 4.6-10.3 7.27-15.3 0.93-1.87 0.93-1.87 0.734-4.73h2c0.33-1.98 0.66-3.96 1-6h2c0.362-0.769 0.362-0.769 0.731-1.55 8.52-18.1 8.52-18.1 13.1-27 1.19-2.45 2.19-4.92 3.19-7.45 3.47-7.71 7.13-15.3 10.9-22.9 2.87-5.69 5.66-11.4 8.38-17.2 0.325-0.69 0.651-1.38 0.986-2.09 1.5-3.21 2.96-6.43 4.34-9.7 1.36-3.15 1.36-3.15 2.8-5.46 1.4-2.41 2.38-4.66 3.38-7.25 2.35-6.01 5.25-11.7 8.19-17.4 3.56-7.03 7.07-14.1 10.4-21.2 0.494-1.05 0.987-2.09 1.5-3.17 1.25-2.63 1.25-2.63 1.07-5.64h2c0.371-0.99 0.371-0.99 0.75-2 1-2.4 2.07-4.68 3.25-7 1.09-2.15 2.1-4.25 3-6.5 0.86-2.15 1.82-4.13 2.88-6.19 1.47-2.89 2.72-5.78 3.88-8.81 1.77-4.54 3.86-8.85 6.06-13.2 2.76-5.46 5.5-10.9 8.12-16.4 0.566-1.18 1.13-2.36 1.71-3.57 1.29-3.16 1.94-5.93 2.35-9.3h2c0.33-1.98 0.66-3.96 1-6h2c0.231-0.606 0.461-1.21 0.699-1.84 1.78-4.57 3.67-8.99 5.93-13.4 2-3.9 3.36-7.56 4.38-11.8-2.78 0.376-4.59 0.673-6.81 2.44-1.39 1.5-1.39 1.5-1.19 3.56h-2c-0.727 1.51-0.727 1.51-1.47 3.04-5.33 10.9-10.9 21.4-18.5 31-2.25 3.79-2.25 3.79-3 8h-2c-0.33 1.65-0.66 3.3-1 5h-2c-0.315 0.58-0.629 1.16-0.953 1.76-1.99 3.64-3.97 7.22-6.36 10.6-1.96 2.53-1.96 2.53-1.69 5.62h-2c-0.536 1.13-1.07 2.27-1.62 3.44-2.01 4.03-4.39 7.69-6.93 11.4-1.99 2.97-3.71 6.03-5.45 9.16-0.374 0.621-0.748 1.24-1.13 1.88-2.31 3.79-2.31 3.79-2.87 8.12h-2c-0.33 1.65-0.66 3.3-1 5h-2c-0.493 0.93-0.493 0.93-0.996 1.88-2.38 4.42-4.79 8.8-7.41 13.1-0.409 0.669-0.817 1.34-1.24 2.03-0.815 1.33-1.64 2.65-2.46 3.97-2.34 3.74-2.34 3.74-2.9 8.04h-2c-0.437 0.909-0.437 0.909-0.883 1.84-2.55 5.22-5.29 10.2-8.32 15.2-5.8 9.53-11.6 19-16.4 29.1-1.51 2.92-3.19 5.64-4.95 8.42-3.15 5.02-6.15 10.1-9.19 15.2-1.34 2.24-2.67 4.47-4.01 6.71-0.586 0.981-1.17 1.96-1.78 2.97-1.13 1.86-2.32 3.69-3.52 5.51v3h-2c-0.33 1.98-0.66 3.96-1 6h-2c-0.99 2.97-1.98 5.94-3 9-0.99-0.33-1.98-0.66-3-1-0.33-0.66-0.66-1.32-1-2h-2c-0.116-0.73-0.232-1.46-0.352-2.21-1.02-4.4-3.33-7.99-5.56-11.9-1.3-2.27-2.58-4.56-3.86-6.84-0.991-1.75-1.98-3.5-2.98-5.25-0.484-0.863-0.968-1.73-1.47-2.61l-1.39-2.43c-0.412-0.726-0.824-1.45-1.25-2.2-0.377-0.518-0.753-1.04-1.14-1.57h-2c-0.0619-0.647-0.124-1.29-0.188-1.96-1.17-4.36-3.46-7.84-5.81-11.7-0.919-1.51-1.84-3.02-2.75-4.54-0.407-0.665-0.815-1.33-1.23-2.01-1.02-1.82-1.02-1.82-2.02-4.82h-2c-0.276-0.715-0.552-1.43-0.836-2.17-1.15-2.79-2.43-5.45-3.79-8.14-0.446-0.883-0.892-1.77-1.35-2.68-0.338-0.664-0.675-1.33-1.02-2.01h-2c-0.168-1.09-0.168-1.09-0.34-2.2-0.69-2.93-1.72-5.02-3.22-7.61-0.455-0.79-0.91-1.58-1.38-2.39-0.524-0.888-0.524-0.888-1.06-1.79h-2c-0.113-0.735-0.227-1.47-0.344-2.23-0.677-2.86-1.59-4.67-3.16-7.15-0.531-0.856-1.06-1.71-1.61-2.59-0.624-1-1.25-2-1.89-3.03-1.59-2.62-3.17-5.25-4.75-7.88-0.389-0.642-0.777-1.28-1.18-1.95-1.81-3.01-3.57-6-5.07-9.18h-2c-0.33-1.65-0.66-3.3-1-5h-2c-0.0657-0.652-0.131-1.3-0.199-1.98-1.13-4.26-3.33-7.66-5.61-11.4-0.882-1.47-1.76-2.93-2.64-4.4-0.426-0.705-0.852-1.41-1.29-2.14-1.8-3-3.53-6.04-5.25-9.09h-2c-0.155-1.05-0.155-1.05-0.312-2.12-0.781-3.27-2.11-5.92-3.69-8.88h-2c-0.112-0.552-0.224-1.1-0.34-1.67-0.774-2.73-1.93-5.06-3.22-7.58-0.455-0.892-0.91-1.78-1.38-2.7-0.349-0.675-0.699-1.35-1.06-2.05h-2c-0.33-1.65-0.66-3.3-1-5h-2c-0.113-0.561-0.227-1.12-0.344-1.7-2.34-8.21-8.12-15.8-12.6-23.1-2.03-3.32-3.76-6.55-5.07-10.2h-2c-0.0941-0.718-0.188-1.44-0.285-2.18-0.831-3.28-2.17-5.28-4.15-8.01-0.617-0.86-1.23-1.72-1.87-2.61-1.65-2.25-1.65-2.25-3.69-4.21h-3z" fill="#ffdb70"/>
<path transform="translate(714,632)" d="m0 0c2.55 0.98 3.76 1.56 5.09 4 0.28 0.806 0.559 1.61 0.848 2.44 1.33 3.62 2.74 7.13 4.38 10.6 1.54 3.34 3.01 6.69 4.39 10.1 0.298 0.737 0.596 1.47 0.903 2.23 0.58 1.44 1.15 2.88 1.72 4.33 1.82 4.53 3.98 8.72 6.4 13 2.14 3.88 3.98 7.91 5.84 11.9 2.6 5.62 5.33 11 8.44 16.4 1.02 2.32 2.02 4.66 3 7 0.557 1.07 1.11 2.14 1.69 3.25 1.31 2.75 1.31 2.75 1.31 5.75h2c0.33 1.98 0.66 3.96 1 6h2c0.28 0.704 0.559 1.41 0.848 2.13 2.86 7.03 6.04 13.8 9.5 20.5 4.65 9.37 4.65 9.37 4.65 13.3h2c0.33 1.98 0.66 3.96 1 6h2c0.196 0.536 0.392 1.07 0.594 1.62 2.44 6.38 5.36 12.4 8.5 18.5 1.67 3.26 3.17 6.47 4.41 9.92 1.44 3.98 3.32 7.59 5.37 11.3 8.88 16.3 8.88 16.3 10.1 23.7h2c0.231 0.606 0.461 1.21 0.699 1.84 0.326 0.838 0.652 1.68 0.988 2.54 0.313 0.812 0.626 1.62 0.949 2.46 1.15 2.66 2.38 5.22 3.68 7.8 2.78 5.51 5.34 11.1 7.87 16.7 0.868 1.92 1.74 3.85 2.61 5.77 0.377 0.837 0.753 1.67 1.14 2.54 0.69 1.5 1.42 2.98 2.2 4.43 0.862 1.88 0.862 1.88 0.862 4.88h2c1.21 2.65 2.42 5.31 3.62 7.96 0.859 1.89 1.73 3.78 2.6 5.66 0.36 0.782 0.719 1.56 1.09 2.37 0.326 0.701 0.652 1.4 0.988 2.12 0.699 1.88 0.699 1.88 0.699 4.88h2c0.315 0.797 0.629 1.59 0.953 2.41 2.28 5.64 4.64 10.5 8.05 15.6 1.07 2.47 2.04 4.97 3 7.48 1.44 3.63 3.21 7.05 5 10.5 1 2 2 4 3 6.01 0.658 1.31 1.32 2.62 2 3.92 7 13.6 7 13.6 7 20.1h-26v-2c-0.557-0.186-1.11-0.371-1.69-0.562-3.33-2.07-5.44-5-7.31-8.44v-3h-2c-0.303-0.629-0.606-1.26-0.918-1.91-2.46-5.04-5.06-9.83-8.16-14.5-0.918-1.59-0.918-1.59-0.918-3.59h-2c-0.266-0.543-0.531-1.09-0.805-1.64-0.353-0.715-0.706-1.43-1.07-2.17-0.348-0.708-0.696-1.42-1.05-2.14-1.14-2.26-1.14-2.26-3.07-5.04v-3h-2c-0.291-0.612-0.583-1.22-0.883-1.85-3-6.16-6.37-11.9-10.1-17.6-3.61-5.53-6.83-11-9.72-17-2.19-4.31-4.74-8.4-7.28-12.5-3.57-5.8-6.86-11.6-9.86-17.8-1.95-3.84-4.38-7.34-6.79-10.9-1.36-2.35-1.36-2.35-1.36-5.35h-2c-0.33-1.65-0.66-3.3-1-5h-2c-0.794-1.56-1.59-3.12-2.38-4.69-0.441-0.87-0.882-1.74-1.34-2.64-1.22-2.52-2.28-5.06-3.29-7.68h-2c-0.818-1.58-1.63-3.16-2.44-4.75-0.452-0.882-0.905-1.76-1.37-2.67-1.03-2.22-1.71-4.19-2.19-6.58h-2c-0.385-0.822-0.385-0.822-0.777-1.66-2.67-5.53-5.62-10.8-8.79-16.1-0.376-0.625-0.751-1.25-1.14-1.89-1.77-2.91-3.58-5.77-5.47-8.61-4.83-7.25-4.83-7.25-4.83-10.8h-2c-3-5.62-3-5.62-3-9h-2c-0.33-1.65-0.66-3.3-1-5h-2c-1.47-2.01-1.47-2.01-3.06-4.69-0.527-0.87-1.05-1.74-1.6-2.64-1.31-2.61-1.92-4.8-2.34-7.68h-2v-2h-3c-0.371 1.03-0.371 1.03-0.75 2.07-1.47 3.43-3.31 6.56-5.25 9.74-0.392 0.647-0.783 1.29-1.19 1.96-3.36 5.54-6.8 11-10.3 16.5-2.09 3.32-4.08 6.66-5.96 10.1-2.65 4.83-5.55 9.47-8.51 14.1-0.5 0.79-0.999 1.58-1.51 2.39-2.54 4-5.12 7.96-7.78 11.9-2.01 3.01-3.76 5.93-5.14 9.29-0.317 0.754-0.634 1.51-0.961 2.29-0.219 0.545-0.438 1.09-0.664 1.65h-2c-0.33 1.65-0.66 3.3-1 5h-2c-0.0657 0.664-0.131 1.33-0.199 2.01-1.11 4.13-3.28 7.25-5.61 10.8-3.43 5.26-6.46 10.5-9.19 16.2h-2c-0.227 0.804-0.454 1.61-0.688 2.44-1.34 3.64-3.02 6.75-4.94 10.1-2.28 4.07-4.32 8.27-6.38 12.5h-2c-0.383 1.02-0.383 1.02-0.773 2.07-1.42 3.4-3.1 6.63-4.85 9.87-0.346 0.646-0.692 1.29-1.05 1.96-3.65 6.77-7.47 13.4-11.3 20.1h-2c-0.0838 0.512-0.168 1.02-0.254 1.55-1.06 3.49-2.88 6.5-4.68 9.64-0.59 1.04-0.59 1.04-1.19 2.1-3.49 6.11-7.06 12.2-10.7 18.2-1.67 2.81-3.15 5.39-4.19 8.5h-2v3h-2c-1.11 2.69-2.08 5.3-2.85 8.11-1.44 3.79-2.62 6.78-6.15 8.89-8.16 1.61-16.8 0.718-25 0-0.33-1.32-0.66-2.64-1-4h2c0.0683-0.639 0.137-1.28 0.207-1.94 1.14-4.4 3.31-8.09 5.48-12.1 4.06-7.56 7.82-15.2 11.3-23 0.937-2.04 1.87-4.08 2.81-6.12 1.2-2.62 2.27-5.13 3.19-7.88h2c0.0877-0.665 0.175-1.33 0.266-2.02 0.959-3.9 2.65-7.18 4.48-10.7 0.361-0.711 0.721-1.42 1.09-2.15 2.28-4.46 4.66-8.86 7.14-13.2 0.998-1.85 1.84-3.7 2.64-5.64 1.25-2.96 2.73-5.5 4.38-8.25 0.445-1.06 0.889-2.11 1.35-3.2 1.62-3.85 3.57-7.46 5.59-11.1 3.13-5.75 5.85-11.5 8.06-17.7h2c0.33-1.18 0.66-2.35 1-3.56 1.94-5.83 4.9-11.1 7.83-16.4 8.49-15.6 16-31.8 23.2-48h2c0.0683-0.802 0.137-1.6 0.207-2.43 1.05-4.72 3.16-8.48 5.48-12.7 0.914-1.7 1.83-3.4 2.74-5.1 0.443-0.82 0.886-1.64 1.34-2.48 3.3-6.15 6.54-12.3 8.98-18.9 2.31-6.01 5.43-11.6 8.46-17.2 6.05-11.3 6.05-11.3 10.8-23.2h2c0.155-1.02 0.155-1.02 0.312-2.06 0.835-3.57 2.18-6.6 3.69-9.94h2c0.186-1.05 0.186-1.05 0.375-2.12 0.663-3.05 1.6-5.93 2.62-8.88h2c0.33-1.98 0.66-3.96 1-6h2c0.33-1.98 0.66-3.96 1-6h2c0.178-1.1 0.178-1.1 0.359-2.23 0.635-2.75 1.49-4.66 2.89-7.09 0.443-0.782 0.887-1.56 1.34-2.37 0.464-0.803 0.928-1.61 1.41-2.43 0.919-1.61 1.84-3.21 2.75-4.82 0.407-0.707 0.815-1.41 1.23-2.14 1.15-2.04 1.15-2.04 2.02-4.91h2v-2zm-2 26c-3.48 5.27-6.26 10.5-8.81 16.3-1.05 2.35-2.15 4.63-3.32 6.92-3.55 6.57-3.55 6.57-4.88 13.8h-2c-0.33 1.98-0.66 3.96-1 6h-2c-0.33 1.98-0.66 3.96-1 6h-2c-4.49 8.88-8.87 17.8-13.1 26.8-2.66 5.69-5.6 11.2-8.7 16.6-1.47 2.52-1.47 2.52-1.25 5.54h-2c-0.33 1.98-0.66 3.96-1 6h-2c-0.367 0.969-0.367 0.969-0.742 1.96-4.34 10.9-9.71 21.6-15.9 31.7-1.76 3.01-3.01 6.17-4.38 9.37-1.24 2.45-2.56 4.85-3.88 7.25-3.32 6.14-6.33 12.4-9.12 18.8-0.393 0.848-0.786 1.7-1.19 2.57-0.37 0.802-0.74 1.6-1.12 2.43-0.326 0.701-0.652 1.4-0.988 2.12-0.874 2.01-0.874 2.01-0.699 4.88h-2c-0.28 0.704-0.559 1.41-0.848 2.13-2.59 6.39-5.44 12.6-8.57 18.7-1.76 3.47-3.44 6.96-5.02 10.5-2.4 5.38-5.04 10.6-7.71 15.9-1.59 3.13-3.1 6.26-4.46 9.5-1.07 2.49-2.14 4.66-3.58 6.93-2.13 3.27-2.13 3.27-1.81 7.31h-2c-4.21 8.31-8.36 16.7-12.4 25.1-0.333 0.689-0.666 1.38-1.01 2.09-2 4.22-3.45 8.33-4.62 12.8h-2c-2.03 3.73-3 5.67-3 10h2c8.31-8.96 8.31-8.96 12-20h2c0.33-1.65 0.66-3.3 1-5h2l1.1-2.05c3-5.56 6.11-11 9.39-16.4 2.12-3.58 4.08-7.25 6.05-10.9 1.72-3.09 3.6-6.03 5.57-8.96 1.12-1.78 1.12-1.78 0.883-4.66h2c0.674-1.27 1.34-2.54 2-3.81 0.371-0.708 0.742-1.42 1.12-2.14 1.07-2.13 1.07-2.13 0.875-5.04h2c6.79-9.36 6.79-9.36 10-20h2c2.36-4.26 2.36-4.26 3-9h2c0.28-0.522 0.559-1.04 0.848-1.58 2.38-4.37 4.88-8.61 7.59-12.8 6.61-9.19 6.61-9.19 9.56-19.6h2c0.33-1.65 0.66-3.3 1-5h2c0.398-0.748 0.797-1.5 1.21-2.27 0.53-0.985 1.06-1.97 1.61-2.98 0.522-0.975 1.04-1.95 1.58-2.95 1.4-2.43 2.91-4.57 4.61-6.8 0.464-1.18 0.464-1.18 0.938-2.38 1.02-2.52 2.31-4.52 3.85-6.75 2.16-3.34 3.97-6.88 5.84-10.4 1.37-2.49 1.37-2.49 3.37-5.49v-3h2c0.33-1.65 0.66-3.3 1-5h2c0.42-0.874 0.42-0.874 0.848-1.77 3.4-6.95 7.23-13.6 11.2-20.2 0.966-1.66 1.93-3.33 2.88-5 0.389-0.681 0.779-1.36 1.18-2.06 0.96-1.97 1.5-3.8 1.95-5.94h2c0.557-1.15 1.11-2.31 1.69-3.5 1.87-3.77 4.01-7.25 6.36-10.7 1.19-1.87 1.19-1.87 0.953-4.76h3v2c0.66 0.33 1.32 0.66 2 1 0.473 1.66 0.942 3.33 1.38 5 1.06 3.42 2.82 6.44 4.56 9.56 0.697 1.27 1.39 2.54 2.09 3.82 0.332 0.605 0.665 1.21 1.01 1.83 1.38 2.57 2.68 5.17 3.97 7.79h2c0.354 1 0.354 1 0.715 2.02 1.62 3.76 3.7 7.12 5.85 10.6 4.31 6.98 4.31 6.98 5.44 10.4h2c0.33 1.65 0.66 3.3 1 5h2c0.112 1 0.112 1 0.227 2.02 1.04 4.02 3 7.14 5.15 10.7 0.441 0.738 0.882 1.48 1.34 2.23 3.77 6.28 7.62 12.5 11.5 18.8 2.97 4.84 5.78 9.74 8.44 14.8 1.57 2.9 3.22 5.73 4.89 8.57 3.29 5.6 6.42 11.3 9.5 17h2c0.124 0.743 0.247 1.48 0.375 2.25 0.58 2.55 1.36 4.48 2.62 6.75h2c0.206 0.784 0.413 1.57 0.625 2.38 1.51 3.98 3.5 7.29 5.73 10.9 2.21 3.65 4.23 7.4 6.26 11.2 1.75 3.22 3.56 6.39 5.39 9.56h2c0.112 0.732 0.223 1.46 0.338 2.22 0.693 2.91 1.66 4.79 3.25 7.31 0.54 0.87 1.08 1.74 1.64 2.64 0.585 0.935 1.17 1.87 1.77 2.83 1.23 2.03 2.46 4.06 3.69 6.09 0.635 1.05 1.27 2.1 1.92 3.18 0.643 1.06 1.29 2.13 1.95 3.22 0.646 1.06 1.29 2.13 1.96 3.22 3.34 5.54 6.47 11.1 9.31 16.9 1.94 3.9 4.1 7.66 6.3 11.4 0.644 1.14 0.644 1.14 1.3 2.29 0.419 0.719 0.838 1.44 1.27 2.18 0.371 0.643 0.743 1.29 1.13 1.95 1.2 1.83 1.2 1.83 4.18 2.52v2c1.98 0.99 3.96 1.98 6 3-0.365-5.66-1.06-10-4-15h-2c-0.0696-0.971-0.139-1.94-0.211-2.94-0.704-4.89-3.02-8.74-5.41-13-3.26-5.99-6.34-12-9-18.2-2.54-5.99-5.31-11.8-8.25-17.6-3.06-6.04-5.96-12.2-8.84-18.3-2.2-4.66-4.45-9.27-6.79-13.9-2.95-5.85-5.69-11.8-8.38-17.8-0.394-0.875-0.788-1.75-1.19-2.65-1.43-3.2-2.82-6.33-3.93-9.66h-2c-0.106-0.704-0.211-1.41-0.32-2.13-0.771-3.25-2.01-5.78-3.55-8.74-3.28-6.39-6.41-12.8-9.5-19.3-0.473-0.991-0.946-1.98-1.43-3-3.29-6.91-6.57-13.8-9.84-20.7-2.38-5.04-4.78-10.1-7.18-15.1-3.43-7.19-6.85-14.4-10.2-21.6-0.548-1.17-1.1-2.34-1.66-3.54-1.28-2.84-1.28-2.84-2.28-5.84h-2c-0.0928-0.842-0.186-1.68-0.281-2.55-0.818-3.93-2.36-7.13-4.22-10.6-0.727-1.41-1.45-2.82-2.18-4.24-0.38-0.741-0.76-1.48-1.15-2.24-2.03-4.03-3.94-8.12-5.86-12.2-2.73-5.81-5.5-11.6-8.44-17.3-0.875-1.81-0.875-1.81-1.88-4.81h-2c-0.168-1.06-0.168-1.06-0.34-2.14-0.723-3.14-1.85-5.76-3.22-8.68-0.455-0.976-0.91-1.95-1.38-2.96-0.349-0.736-0.699-1.47-1.06-2.23h-2c-0.0619-0.784-0.124-1.57-0.188-2.38-0.402-1.3-0.402-1.3-0.812-2.62-2.48-1.37-2.48-1.37-5-2z" fill="#ffdb70"/>
</svg>
